<svg width="50" height="50" viewBox="0 0 50 50" fill="none" xmlns="http://www.w3.org/2000/svg">
<path d="M25.0013 45.8307C36.5072 45.8307 45.8346 36.5033 45.8346 24.9974C45.8346 13.4914 36.5072 4.16406 25.0013 4.16406C13.4953 4.16406 4.16797 13.4914 4.16797 24.9974C4.16797 36.5033 13.4953 45.8307 25.0013 45.8307Z" stroke="#043F2E" stroke-linecap="round" stroke-linejoin="round"/>
<path d="M5.20703 26.0391L16.6654 30.2058L14.5821 37.4975L16.6654 43.7475" stroke="#043F2E" stroke-linecap="round" stroke-linejoin="round"/>
<path d="M35.418 42.7058L34.3764 37.4975L29.168 35.4141V28.1225L35.418 26.0391L44.793 27.0808" stroke="#043F2E" stroke-linecap="round" stroke-linejoin="round"/>
<path d="M39.5833 11.4609L38.5417 14.5859L31.25 15.6275V21.8775L36.4583 19.7942H40.625L44.7917 21.8775" stroke="#043F2E" stroke-linecap="round" stroke-linejoin="round"/>
<path d="M5.20703 21.875L10.4154 17.7083L15.6237 16.6667L19.7904 10.4167L17.7071 6.25" stroke="#043F2E" stroke-linecap="round" stroke-linejoin="round"/>
</svg>
