<svg width="50" height="50" viewBox="0 0 50 50" fill="none" xmlns="http://www.w3.org/2000/svg">
<path d="M14.375 6.60037L25 0.578125L35.6251 6.6004L46.1529 12.7908L46.25 25.0034L46.1529 37.216L35.6251 43.4064L25 49.4287L14.375 43.4064L3.84708 37.216L3.75 25.0034L3.84708 12.7908L14.375 6.60037Z" stroke="#043F2E"/>
<path d="M39.6151 32.5941V30.1797C39.6151 26.3137 36.4811 23.1797 32.6151 23.1797H31.5234" stroke="#043F2E" stroke-linecap="round" stroke-linejoin="round"/>
<path d="M26.6914 17.8844C26.6914 15.4616 29.3484 13.7656 31.4015 13.7656C33.9933 13.7656 36.0944 15.8731 36.0944 18.4728C36.0944 21.0725 33.9933 23.18 31.4015 23.18C30.9587 23.18 30.0247 23.18 29.8315 23.18" stroke="#043F2E" stroke-linecap="round" stroke-linejoin="round"/>
<path d="M16.9102 36.4769V34.0625C16.9102 30.1965 20.0442 27.0625 23.9102 27.0625H26.3353C30.2013 27.0625 33.3353 30.1965 33.3353 34.0625V36.4769" stroke="#043F2E" stroke-linecap="round" stroke-linejoin="round"/>
<path d="M25.1226 27.0628C27.7144 27.0628 29.8155 24.9553 29.8155 22.3556C29.8155 19.7558 27.7144 17.6484 25.1226 17.6484C22.5308 17.6484 20.4297 19.7558 20.4297 22.3556C20.4297 24.9553 22.5308 27.0628 25.1226 27.0628Z" stroke="#043F2E" stroke-linecap="round" stroke-linejoin="round"/>
<path d="M10.3867 32.5946V30.0938C10.3867 26.2278 13.5207 23.0938 17.3867 23.0938H18.1161" stroke="#043F2E" stroke-linecap="round" stroke-linejoin="round"/>
<path d="M23.1885 18.0056C23.1885 15.825 21.191 13.7656 18.5991 13.7656C16.0073 13.7656 13.9062 15.8731 13.9062 18.4728C13.9062 21.0725 16.0629 23.8203 20.4107 22.9724" stroke="#043F2E" stroke-linecap="round" stroke-linejoin="round"/>
</svg>
