<svg width="24" height="24" viewBox="0 0 24 24" fill="none" xmlns="http://www.w3.org/2000/svg">
<path d="M20.2949 14.2002L12.7949 6.70024C12.6904 6.59536 12.5662 6.51214 12.4295 6.45536C12.2927 6.39858 12.1461 6.36935 11.998 6.36935C11.85 6.36935 11.7034 6.39858 11.5666 6.45536C11.4299 6.51214 11.3057 6.59536 11.2012 6.70024L3.70117 14.2002C3.48983 14.4116 3.37109 14.6982 3.37109 14.9971C3.37109 15.296 3.48983 15.5826 3.70117 15.794C3.91251 16.0053 4.19916 16.1241 4.49805 16.1241C4.79693 16.1241 5.08358 16.0053 5.29492 15.794L11.999 9.08992L18.703 15.7949C18.9144 16.0063 19.201 16.125 19.4999 16.125C19.7988 16.125 20.0854 16.0063 20.2968 15.7949C20.5081 15.5836 20.6269 15.2969 20.6269 14.998C20.6269 14.6992 20.5081 14.4125 20.2968 14.2012L20.2949 14.2002Z" fill="white"/>
</svg>
