<svg width="24" height="24" viewBox="0 0 24 24" fill="none" xmlns="http://www.w3.org/2000/svg">
<path d="M20.2949 9.79976L12.7949 17.2998C12.6904 17.4046 12.5662 17.4879 12.4295 17.5446C12.2927 17.6014 12.1461 17.6307 11.998 17.6307C11.85 17.6307 11.7034 17.6014 11.5666 17.5446C11.4299 17.4879 11.3057 17.4046 11.2012 17.2998L3.70117 9.79976C3.48983 9.58842 3.37109 9.30177 3.37109 9.00289C3.37109 8.704 3.48983 8.41736 3.70117 8.20601C3.91251 7.99467 4.19916 7.87594 4.49805 7.87594C4.79693 7.87594 5.08358 7.99467 5.29492 8.20601L11.999 14.9101L18.703 8.20508C18.9144 7.99373 19.201 7.875 19.4999 7.875C19.7988 7.875 20.0854 7.99373 20.2968 8.20508C20.5081 8.41642 20.6269 8.70307 20.6269 9.00195C20.6269 9.30084 20.5081 9.58748 20.2968 9.79883L20.2949 9.79976Z" fill="white"/>
</svg>
