<svg width="45" height="44" viewBox="0 0 45 44" fill="none" xmlns="http://www.w3.org/2000/svg">
<rect x="0.5" width="44" height="44" rx="20" fill="white"/>
<g clip-path="url(#clip0_80_2566)">
<path d="M18.5 14H14.5C13.4391 14 12.4217 14.4214 11.6716 15.1716C10.9214 15.9217 10.5 16.9391 10.5 18V22C10.5 22.5304 10.7107 23.0391 11.0858 23.4142C11.4609 23.7893 11.9696 24 12.5 24H18.41C18.1727 25.3965 17.4495 26.6643 16.368 27.5792C15.2866 28.4941 13.9166 28.9974 12.5 29C12.2348 29 11.9804 29.1054 11.7929 29.2929C11.6054 29.4804 11.5 29.7348 11.5 30C11.5 30.2652 11.6054 30.5196 11.7929 30.7071C11.9804 30.8946 12.2348 31 12.5 31C14.621 30.9976 16.6544 30.154 18.1542 28.6542C19.654 27.1544 20.4976 25.121 20.5 23V16C20.5 15.4696 20.2893 14.9609 19.9142 14.5858C19.5391 14.2107 19.0304 14 18.5 14Z" fill="#111111"/>
<path d="M32.5 14H28.5C27.4391 14 26.4217 14.4214 25.6716 15.1716C24.9214 15.9217 24.5 16.9391 24.5 18V22C24.5 22.5304 24.7107 23.0391 25.0858 23.4142C25.4609 23.7893 25.9696 24 26.5 24H32.41C32.1727 25.3965 31.4495 26.6643 30.368 27.5792C29.2866 28.4941 27.9166 28.9974 26.5 29C26.2348 29 25.9804 29.1054 25.7929 29.2929C25.6054 29.4804 25.5 29.7348 25.5 30C25.5 30.2652 25.6054 30.5196 25.7929 30.7071C25.9804 30.8946 26.2348 31 26.5 31C28.621 30.9976 30.6544 30.154 32.1542 28.6542C33.654 27.1544 34.4976 25.121 34.5 23V16C34.5 15.4696 34.2893 14.9609 33.9142 14.5858C33.5391 14.2107 33.0304 14 32.5 14Z" fill="#111111"/>
</g>
<defs>
<clipPath id="clip0_80_2566">
<rect width="24" height="24" fill="white" transform="translate(10.5 10)"/>
</clipPath>
</defs>
</svg>
