<svg width="50" height="50" viewBox="0 0 50 50" fill="none" xmlns="http://www.w3.org/2000/svg">
<path d="M25 8.33073L20.6022 15.6604C19.6998 17.1644 19.2486 17.9164 19.2486 18.7474C19.2486 19.5783 19.6998 20.3304 20.6022 21.8344L24.5713 28.4495C24.7627 28.7686 24.8585 28.9281 25 28.9281C25.1415 28.9281 25.2373 28.7686 25.4287 28.4495L29.3978 21.8344C30.3002 20.3304 30.7514 19.5783 30.7514 18.7474C30.7514 17.9164 30.3002 17.1644 29.3978 15.6604L25 8.33073ZM25 8.33073V4.16406" stroke="#111111"/>
<path d="M42.0009 26.246L33.4543 26.1022C31.7006 26.0727 30.8237 26.058 30.1041 26.4734C29.3845 26.8889 28.9588 27.6557 28.1075 29.1892L24.3632 35.9341C24.1826 36.2594 24.0923 36.4221 24.163 36.5447C24.2338 36.6673 24.4199 36.6704 24.792 36.6767L32.5053 36.8064C34.2591 36.8359 35.1359 36.8507 35.8556 36.4352C36.5752 36.0197 37.0008 35.253 37.8521 33.7195L42.0009 26.246ZM42.0009 26.246L45.6094 24.1627" stroke="#111111"/>
<path d="M7.99906 26.246L16.5457 26.1022C18.2994 26.0727 19.1763 26.058 19.8959 26.4734C20.6155 26.8889 21.0412 27.6557 21.8925 29.1892L25.6368 35.9341C25.8174 36.2594 25.9077 36.4221 25.837 36.5447C25.7662 36.6673 25.5801 36.6704 25.208 36.6767L17.4947 36.8064C15.7409 36.8359 14.8641 36.8507 14.1444 36.4352C13.4248 36.0197 12.9992 35.253 12.1479 33.7195L7.99906 26.246ZM7.99906 26.246L4.39063 24.1627" stroke="#111111"/>
<path d="M25 31.25V46.875" stroke="#111111"/>
</svg>
