<svg width="50" height="50" viewBox="0 0 50 50" fill="none" xmlns="http://www.w3.org/2000/svg">
<path d="M25.0052 45.8307C36.5111 45.8307 45.8385 36.5033 45.8385 24.9974C45.8385 13.4914 36.5111 4.16406 25.0052 4.16406C13.4992 4.16406 4.17188 13.4914 4.17188 24.9974C4.17188 36.5033 13.4992 45.8307 25.0052 45.8307Z" stroke="#111111" stroke-linecap="round" stroke-linejoin="round"/>
<path d="M5.20312 26.0391L16.6615 30.2058L14.5782 37.4975L16.6615 43.7475" stroke="#111111" stroke-linecap="round" stroke-linejoin="round"/>
<path d="M35.4219 42.7058L34.3803 37.4975L29.1719 35.4141V28.1225L35.4219 26.0391L44.7969 27.0808" stroke="#111111" stroke-linecap="round" stroke-linejoin="round"/>
<path d="M39.5833 11.4609L38.5417 14.5859L31.25 15.6275V21.8775L36.4583 19.7942H40.625L44.7917 21.8775" stroke="#111111" stroke-linecap="round" stroke-linejoin="round"/>
<path d="M5.20312 21.875L10.4115 17.7083L15.6198 16.6667L19.7865 10.4167L17.7032 6.25" stroke="#111111" stroke-linecap="round" stroke-linejoin="round"/>
</svg>
