<svg width="50" height="50" viewBox="0 0 50 50" fill="none" xmlns="http://www.w3.org/2000/svg">
<path d="M43 39.5317L37.8859 34.3303C37.0918 33.5226 36.0118 33.0703 34.8894 33.0703H33.4706L31.3529 34.1472H27.1176C25.9529 34.1472 25 35.1164 25 36.301V38.4548" stroke="#111111" stroke-linecap="round" stroke-linejoin="round"/>
<path d="M36.6498 46.0055L34.5322 43.8517H21.8263L12.2969 34.1596L13.9592 33.7396C15.5792 33.3304 17.3051 33.7073 18.6075 34.7735L22.8851 38.4672H31.3557" stroke="#111111" stroke-linecap="round" stroke-linejoin="round"/>
<path d="M7 10.4609L12.1141 15.6624C12.9082 16.47 13.9882 16.9223 15.1106 16.9223H16.5294L18.6471 15.8454H22.8824C24.0471 15.8454 25 14.8762 25 13.6916V11.5378" stroke="#111111" stroke-linecap="round" stroke-linejoin="round"/>
<path d="M13.3516 4L15.4692 6.1538H28.1751L37.7045 15.8459L36.0421 16.2659C34.4221 16.6751 32.6963 16.2982 31.3939 15.232L27.1163 11.5383H18.6457" stroke="#111111" stroke-linecap="round" stroke-linejoin="round"/>
<path d="M25.0014 20.9193C25.6261 19.7024 26.9496 18.9055 28.4214 19.0993C30.1155 19.3147 31.3543 20.8654 31.3543 22.5992C31.3543 24.473 30.6237 26.2715 29.3214 27.596L25.0014 31.9898L20.6814 27.596C19.379 26.2715 18.6484 24.473 18.6484 22.5992C18.6484 20.7685 20.0249 19.1747 21.8249 19.0778C23.2014 19.0024 24.419 19.767 25.0014 20.93V20.9193Z" stroke="#111111" stroke-linecap="round" stroke-linejoin="round"/>
</svg>
