<svg width="40" height="42" viewBox="0 0 40 42" fill="none" xmlns="http://www.w3.org/2000/svg">
<path d="M16.4338 41.0038V32.7706C16.4338 31.3004 15.6975 29.9243 14.4625 29.1127L12.8713 28.066L10.9831 26.1959C10.0569 25.2785 8.54875 25.2785 7.6225 26.1959L6.92188 26.8898" stroke="#111111" stroke-linecap="round" stroke-linejoin="round"/>
<path d="M9.3125 40.9998V36.2952L1 28.062V17.4766C2.98312 17.4766 4.50312 19.0409 4.5625 21.0051V24.5335L10.5 30.4144" stroke="#111111" stroke-linecap="round" stroke-linejoin="round"/>
<path d="M20 4.71536C21.2706 2.26894 23.99 0.681115 27.0419 1.05749C30.5331 1.49267 33.0625 4.58598 33.0625 8.06742C33.0625 11.8194 31.5544 15.4302 28.8706 18.0883L20 26.8743L11.1294 18.0883C8.44562 15.4302 6.9375 11.8311 6.9375 8.06742C6.9375 4.39779 9.76375 1.21039 13.4688 1.01044C16.3069 0.857539 18.8006 2.39831 20 4.70359V4.71536Z" stroke="#111111" stroke-linecap="round" stroke-linejoin="round"/>
<path d="M20 8.07031V17.4796" stroke="#111111" stroke-linecap="round" stroke-linejoin="round"/>
<path d="M24.75 12.7734H15.25" stroke="#111111" stroke-linecap="round" stroke-linejoin="round"/>
<path d="M23.5625 41.0038V32.7706C23.5625 31.3004 24.2987 29.9243 25.5337 29.1127L27.125 28.066L29.0131 26.1959C29.9394 25.2785 31.4475 25.2785 32.3738 26.1959L33.0744 26.8898" stroke="#111111" stroke-linecap="round" stroke-linejoin="round"/>
<path d="M30.6875 40.9998V36.2952L39 28.062V17.4766C37.0169 17.4766 35.4969 19.0409 35.4375 21.0051V24.5335L29.5 30.4144" stroke="#111111" stroke-linecap="round" stroke-linejoin="round"/>
</svg>
