<svg width="50" height="50" viewBox="0 0 50 50" fill="none" xmlns="http://www.w3.org/2000/svg">
<g clip-path="url(#clip0_4_1608)">
<path d="M0.960938 34.7266C0.960938 36.4199 3.63205 37.7926 6.92704 37.7926C8.2704 37.7926 9.51005 37.5644 10.5073 37.1794" stroke="#111111" stroke-linecap="round" stroke-linejoin="round"/>
<path d="M0.960938 29.7969C0.960938 31.4902 3.63205 32.863 6.92704 32.863C8.2704 32.863 9.51005 32.6347 10.5073 32.2497" stroke="#111111" stroke-linecap="round" stroke-linejoin="round"/>
<path d="M0.960938 39.0234C0.960938 40.7168 3.63205 42.0895 6.92703 42.0895C8.27013 42.0895 9.50957 41.8615 10.5067 41.4765" stroke="#111111" stroke-linecap="round" stroke-linejoin="round"/>
<path d="M0.960938 24.5859V42.413C0.960938 44.6506 3.64398 46.4646 6.95368 46.4646C8.30279 46.4646 9.54773 46.1629 10.5493 45.6543" stroke="#111111" stroke-linecap="round" stroke-linejoin="round"/>
<path d="M12.8945 28.6637V24.9844" stroke="#111111" stroke-linecap="round" stroke-linejoin="round"/>
<path d="M16.4739 34.265C13.1789 34.265 10.5078 32.8922 10.5078 31.1989C10.5078 29.5056 13.1789 28.1328 16.4739 28.1328C19.7689 28.1328 22.44 29.5056 22.44 31.1989C22.44 32.8922 19.7689 34.265 16.4739 34.265Z" stroke="#111111" stroke-linecap="round" stroke-linejoin="round"/>
<path d="M10.5078 40.8594C10.5078 42.5527 13.1789 43.9255 16.4739 43.9255C19.7689 43.9255 22.44 42.5527 22.44 40.8594" stroke="#111111" stroke-linecap="round" stroke-linejoin="round"/>
<path d="M10.5078 36.3281C10.5078 38.0215 13.1789 39.3942 16.4739 39.3942C19.7689 39.3942 22.44 38.0215 22.44 36.3281" stroke="#111111" stroke-linecap="round" stroke-linejoin="round"/>
<path d="M10.5508 31.6875V44.7527C10.5508 47.0077 13.2123 48.8356 16.4956 48.8356C19.7788 48.8356 22.4404 47.0077 22.4404 44.7527V31.6875" stroke="#111111" stroke-linecap="round" stroke-linejoin="round"/>
<path d="M6.92705 27.765C3.63205 27.765 0.960938 26.3922 0.960938 24.6989C0.960938 23.0056 3.63205 21.6328 6.92705 21.6328C10.2221 21.6328 12.8931 23.0056 12.8931 24.6989C12.8931 26.3922 10.2221 27.765 6.92705 27.765Z" stroke="#111111" stroke-linecap="round" stroke-linejoin="round"/>
<path d="M22.6297 44.2947H42.1702C45.8875 44.2947 48.901 41.2222 48.901 37.432V34.8212C49.3779 26.4878 49.3779 17.1741 35.0946 11.1811M35.0946 11.1811C37.5876 10.4032 37.9239 7.22484 38.3549 4.77519M35.0946 11.1811C44.8747 13.7923 41.0395 6.91049 38.3549 4.77519M35.0946 11.1811C34.028 11.5139 31.9918 11.9261 29.7251 11.9211M38.3549 4.77519C38.7415 2.5771 38.5399 0.8811 37.5876 1.72006C35.574 3.494 33.7823 4.61363 32.8892 2.90269C31.8345 0.881932 30.0128 0.389172 28.5745 1.72006C27.2621 2.9345 26.6643 3.54582 25.3144 3.19836C24.3556 2.95153 22.6297 0.586277 22.1503 1.22731C21.0763 5.16941 23.6205 9.50572 25.0268 11.1811M29.7251 11.9211C28.1883 11.9177 26.5455 11.7226 25.0268 11.1811M29.7251 11.9211C28.1142 11.4882 27.0084 7.69949 26.6568 5.85927M29.7251 11.9211C32.1797 10.8574 33.3048 7.43669 33.5605 5.85927M25.0268 11.1811C17.424 15.2133 14.5625 19.6251 14.5625 27.9584" stroke="#111111"/>
<path d="M33.9442 23.909C33.0684 22.9951 31.5262 22.3594 30.1088 22.3196M30.1088 22.3196C28.4224 22.2722 26.9127 23.0684 26.9127 25.2433C26.9127 29.2461 33.9442 27.2447 33.9442 31.2474C33.9442 33.5304 32.0728 34.5112 30.1088 34.4376M30.1088 22.3196V19.9062M26.2734 32.5816C27.0974 33.7282 28.6294 34.3821 30.1088 34.4376M30.1088 34.4376V37.2515" stroke="#111111" stroke-linecap="round" stroke-linejoin="round"/>
</g>
<defs>
<clipPath id="clip0_4_1608">
<rect width="50" height="50" fill="white"/>
</clipPath>
</defs>
</svg>
