<svg width="32" height="32" viewBox="0 0 32 32" fill="none" xmlns="http://www.w3.org/2000/svg">
<path fill-rule="evenodd" clip-rule="evenodd" d="M7.27848 1.61188L7.08075 2.60663C7.05477 2.7373 7.02253 2.86562 6.98433 2.99126L6.96752 3.04523C6.57417 4.27642 5.60715 5.24344 4.37596 5.63679L4.32199 5.6536C4.19635 5.6918 4.06803 5.72404 3.93736 5.75002L2.94261 5.94775L2.66667 6.0026V7.33594L2.94261 7.39079L3.93736 7.58852C4.06803 7.6145 4.19635 7.64674 4.32199 7.68494C4.34003 7.69042 4.35801 7.69603 4.37596 7.70175C5.60715 8.0951 6.57417 9.06212 6.96752 10.2933L6.98433 10.3473C7.02253 10.4729 7.05477 10.6012 7.08075 10.7319L7.27848 11.7267L7.33333 12.0026H8.66667L8.72152 11.7267L8.91925 10.7319C8.94523 10.6012 8.97747 10.4729 9.01567 10.3473C9.02115 10.3292 9.02676 10.3112 9.03248 10.2933C9.42583 9.06212 10.3929 8.0951 11.624 7.70175C11.642 7.69603 11.66 7.69042 11.678 7.68494C11.8037 7.64674 11.932 7.6145 12.0626 7.58852L13.0574 7.39079L13.3333 7.33594V6.0026L13.0574 5.94775L12.0626 5.75002C11.932 5.72404 11.8037 5.6918 11.678 5.6536L11.624 5.63679C10.3929 5.24344 9.42583 4.27642 9.03248 3.04523C9.02676 3.02728 9.02115 3.0093 9.01567 2.99126C8.97747 2.86562 8.94523 2.7373 8.91925 2.60663L8.72152 1.61188L8.66667 1.33594H7.33333L7.27848 1.61188ZM8 5.3696C7.63609 5.86679 7.19752 6.30536 6.70033 6.66927C7.19752 7.03319 7.63609 7.47175 8 7.96894C8.36392 7.47175 8.80248 7.03318 9.29967 6.66927C8.80248 6.30535 8.36392 5.86679 8 5.3696ZM4.61181 18.9453L4.41408 19.9399C4.38811 20.0706 4.35587 20.199 4.31767 20.3246L4.30085 20.3786C3.90751 21.6098 2.94048 22.5767 1.70929 22.9701L1.65532 22.987C1.52968 23.0251 1.40136 23.0574 1.2707 23.0834L0.275943 23.2811L0 23.3359V24.6693L0.275943 24.7241L1.2707 24.9218C1.40136 24.9478 1.52968 24.9801 1.65532 25.0182C1.67336 25.0238 1.69135 25.0294 1.70929 25.0351C2.94048 25.4285 3.90751 26.3954 4.30085 27.6266L4.31767 27.6806C4.35587 27.8062 4.38811 27.9346 4.41408 28.0653L4.61181 29.0599L4.66667 29.3359H6L6.05485 29.0599L6.25259 28.0653C6.27856 27.9346 6.3108 27.8062 6.349 27.6806L6.36581 27.6266C6.75916 26.3954 7.72619 25.4285 8.95737 25.0351L9.01135 25.0182C9.13699 24.9801 9.26531 24.9478 9.39597 24.9218L10.3907 24.7241L10.6667 24.6693V23.3359L10.3907 23.2811L9.39597 23.0834C9.26531 23.0574 9.13699 23.0251 9.01135 22.987L8.95737 22.9701C7.72619 22.5767 6.75916 21.6098 6.36581 20.3786C6.36009 20.3606 6.35448 20.3426 6.349 20.3246C6.3108 20.199 6.27856 20.0706 6.25259 19.9399L6.05485 18.9453L6 18.6693H4.66667L4.61181 18.9453ZM5.33333 22.7029C4.96943 23.2001 4.53085 23.6387 4.03367 24.0026C4.53085 24.3665 4.96943 24.8051 5.33333 25.3023C5.69725 24.8051 6.13581 24.3665 6.633 24.0026C6.13581 23.6387 5.69725 23.2001 5.33333 22.7029ZM17.6701 9.91096L18.6667 5.33594H21.3333L22.3299 9.91098C22.8851 12.46 24.876 14.451 27.4249 15.0061L32 16.0026V18.6693L27.4249 19.6658C24.876 20.221 22.8851 22.2119 22.3299 24.7609L21.3333 29.3359H18.6667L17.6701 24.7609C17.1149 22.2119 15.124 20.221 12.575 19.6658L8 18.6693V16.0026L12.575 15.0061C15.124 14.4509 17.1151 12.46 17.6701 9.91096ZM26.9993 16.9603L28.7239 17.3359L26.9993 17.7115C23.6856 18.4333 21.0973 21.0215 20.3756 24.3353L20 26.0598L19.6244 24.3353C18.9027 21.0215 16.3144 18.4333 13.0007 17.7115L11.2761 17.3359L13.0007 16.9603C16.3144 16.2386 18.9027 13.6503 19.6244 10.3366L20 8.61203L20.3756 10.3366C21.0973 13.6503 23.6856 16.2386 26.9993 16.9603Z" fill="white"/>
</svg>
