<svg width="172" height="172" viewBox="0 0 172 172" fill="none" xmlns="http://www.w3.org/2000/svg">
<rect x="3" y="3" width="166" height="166" rx="83" fill="#C8F168"/>
<rect x="3" y="3" width="166" height="166" rx="83" stroke="white" stroke-width="6"/>
<rect x="46.5" y="46.5" width="79" height="79" rx="39.5" stroke="#111111"/>
<path d="M82.5683 141.806L81.3347 152.036L77.1887 151.536C75.6744 151.353 74.6004 150.815 73.9667 149.922C73.3318 149.04 73.1261 147.672 73.3495 145.819C73.5602 144.071 74.0748 142.834 74.8933 142.105C75.7104 141.387 76.8868 141.121 78.4223 141.306L82.5683 141.806ZM80.6759 142.931L78.5315 142.673C77.8643 142.592 77.2969 142.62 76.8291 142.757C76.36 142.905 75.9818 143.235 75.6942 143.749C75.4067 144.262 75.2023 145.022 75.081 146.028C74.9597 147.034 74.9664 147.824 75.1012 148.399C75.236 148.974 75.5124 149.4 75.9304 149.676C76.3377 149.95 76.9015 150.131 77.6216 150.218L79.7661 150.477L80.6759 142.931Z" fill="#111111"/>
<path d="M68.0299 138.671C69.328 139.094 70.1755 139.73 70.5724 140.577C70.9591 141.421 70.9558 142.447 70.5623 143.654C70.1689 144.86 69.5621 145.689 68.742 146.14C67.922 146.59 66.868 146.606 65.58 146.186C64.2819 145.763 63.4344 145.127 63.0376 144.28C62.6407 143.433 62.639 142.405 63.0324 141.199C63.4258 139.992 64.0326 139.163 64.8527 138.712C65.6626 138.258 66.7217 138.245 68.0299 138.671ZM67.5737 140.071C66.8131 139.823 66.2161 139.83 65.7827 140.093C65.3358 140.362 64.9768 140.913 64.7057 141.744C64.4346 142.576 64.4018 143.227 64.6073 143.698C64.8027 144.165 65.2806 144.523 66.0412 144.771C66.7917 145.016 67.3887 145.009 67.8322 144.749C68.2656 144.487 68.6179 143.94 68.889 143.108C69.1601 142.276 69.1997 141.622 69.0076 141.144C68.8021 140.673 68.3241 140.315 67.5737 140.071Z" fill="#111111"/>
<path d="M61.5523 136.244L57.8898 142.885L56.4887 142.112L56.805 141.373C56.3773 141.441 55.9142 141.442 55.4157 141.374C54.9026 141.31 54.3939 141.139 53.8896 140.861C53.0302 140.387 52.5152 139.841 52.3444 139.223C52.1736 138.605 52.3226 137.871 52.7914 137.021L55.1636 132.72L56.6767 133.555L54.3432 137.786C54.0598 138.299 53.9689 138.718 54.0704 139.042C54.1626 139.361 54.4982 139.68 55.0773 140C55.4229 140.19 55.8025 140.308 56.216 140.353C56.6202 140.394 56.9961 140.364 57.3439 140.263L60.0252 135.401L61.5523 136.244Z" fill="#111111"/>
<path d="M50.8064 129.096C51.1776 129.4 51.47 129.75 51.6836 130.146C51.8889 130.535 51.9782 130.939 51.9516 131.358C51.9183 131.786 51.7393 132.198 51.4148 132.594C50.955 133.155 50.3967 133.449 49.74 133.476C49.0683 133.505 48.3323 133.191 47.5321 132.536L45.6511 130.994L45.4381 131.254C45.2082 131.534 45.071 131.794 45.0265 132.034C44.9738 132.266 45.0325 132.514 45.2027 132.778C45.3646 133.035 45.6641 133.342 46.1014 133.701C46.7944 134.269 47.5265 134.696 48.2978 134.984L47.4763 135.986C47.1244 135.877 46.7317 135.7 46.2981 135.455C45.8645 135.21 45.4291 134.908 44.9918 134.55C44.1338 133.847 43.6241 133.139 43.4625 132.428C43.2928 131.709 43.5291 130.958 44.1714 130.174L47.2647 126.4L48.4156 127.343L48.0154 128.008C48.4439 127.973 48.8863 128.039 49.3425 128.206C49.7904 128.367 50.2784 128.663 50.8064 129.096ZM49.6564 129.767C49.2522 129.436 48.8474 129.214 48.4423 129.103C48.0221 128.993 47.6224 128.976 47.2434 129.051L46.4016 130.078L48.2578 131.6C48.6538 131.924 49.0068 132.082 49.3168 132.074C49.6117 132.068 49.8877 131.908 50.1446 131.594C50.3948 131.289 50.4708 130.986 50.3728 130.685C50.2747 130.384 50.0359 130.078 49.6564 129.767Z" fill="#111111"/>
<path d="M43.3744 121.773C43.9131 122.378 44.1577 122.975 44.1082 123.561C44.0437 124.146 43.7324 124.687 43.1745 125.184L40.2094 127.82L40.9536 128.657L39.9374 129.561L39.1931 128.724L37.8899 129.883L36.347 128.943L38.0448 127.433L36.7051 125.926L37.7958 125.106L39.0611 126.529L41.9544 123.956C42.2812 123.665 42.4451 123.384 42.4459 123.112C42.4387 122.847 42.2828 122.544 41.978 122.201C41.7866 121.986 41.5447 121.794 41.2524 121.626L42.173 120.807C42.577 121.004 42.9774 121.326 43.3744 121.773Z" fill="#111111"/>
<path d="M38.3908 114.821C39.104 115.934 39.3821 116.972 39.2253 117.934C39.0684 118.896 38.424 119.739 37.2921 120.464C36.268 121.119 35.2927 121.376 34.3663 121.235C33.4398 121.093 32.6372 120.493 31.9585 119.433C31.3374 118.463 31.1275 117.571 31.329 116.758C31.5157 115.942 32.0088 115.278 32.8083 114.766L33.9941 114.007L36.9878 118.683C37.5616 118.214 37.8445 117.716 37.8365 117.189C37.8285 116.662 37.5772 116.013 37.0826 115.24C36.8755 114.917 36.6313 114.604 36.3498 114.303C36.0684 114.002 35.7977 113.758 35.5379 113.569L36.6159 112.879C36.9257 113.086 37.2328 113.358 37.5373 113.695C37.836 114.023 38.1205 114.398 38.3908 114.821ZM36.0311 119.295L33.8656 115.913L33.421 116.198C32.9808 116.479 32.7171 116.819 32.6298 117.217C32.5336 117.621 32.6695 118.11 33.0376 118.685C33.4747 119.368 33.9249 119.744 34.3881 119.815C34.8456 119.877 35.3933 119.703 36.0311 119.295Z" fill="#111111"/>
<path d="M33.0318 103.812L23.0939 106.534L22.6881 105.052L28.5826 97.864L21.268 99.8674L20.8115 98.2008L30.7495 95.4789L31.1552 96.9603L25.272 104.129L32.5711 102.13L33.0318 103.812Z" fill="#111111"/>
<path d="M30.4421 89.1795C30.5406 90.5412 30.2724 91.5659 29.6377 92.2535C29.0022 92.9304 28.0515 93.3147 26.7854 93.4062C25.5194 93.4978 24.5229 93.249 23.7958 92.6599C23.0688 92.0708 22.6564 91.1007 22.5587 89.7495C22.4602 88.3878 22.7283 87.3631 23.3631 86.6755C23.9978 85.9879 24.9482 85.5984 26.2142 85.5068C27.4802 85.4153 28.4768 85.664 29.2038 86.2531C29.9301 86.8316 30.3429 87.807 30.4421 89.1795ZM28.9739 89.2856C28.9162 88.4877 28.684 87.9377 28.2771 87.6356C27.8588 87.3236 27.2135 87.1992 26.3411 87.2622C25.4687 87.3253 24.8534 87.5409 24.495 87.9091C24.1358 88.2666 23.9851 88.8443 24.0428 89.6422C24.0997 90.4295 24.332 90.9795 24.7396 91.2923C25.1465 91.5944 25.7861 91.7139 26.6585 91.6508C27.5309 91.5877 28.152 91.377 28.5218 91.0188C28.8801 90.6506 29.0309 90.0729 28.9739 89.2856Z" fill="#111111"/>
<path d="M30.4073 80.6544L22.6287 81.6603L22.8535 79.9308L28.4966 79.3412L24.1347 77.2738L23.2144 77.1542L23.3856 75.8372L29.0719 74.9145L23.7671 72.9019L23.9898 71.1883L31.2548 74.1333L31.0424 75.7675L25.9155 76.7308L30.6217 79.0043L30.4073 80.6544Z" fill="#111111"/>
<path d="M34.4178 64.6247L33.1651 64.0952L33.7382 62.7393L34.9909 63.2689L34.4178 64.6247Z" fill="#111111"/>
<path d="M40.0904 54.0382L31.9777 47.6855L34.5523 44.3976C35.4927 43.1967 36.5089 42.5563 37.6009 42.4767C38.6846 42.3904 39.9612 42.9227 41.4309 44.0735C42.8166 45.1586 43.6092 46.2399 43.8087 47.3173C43.9998 48.3882 43.6185 49.5325 42.665 50.7503L40.0904 54.0382ZM40.1074 51.8365L41.4391 50.1358C41.8534 49.6067 42.1231 49.1066 42.2481 48.6355C42.3647 48.1579 42.278 47.6632 41.9878 47.1514C41.6975 46.6396 41.1535 46.0714 40.3557 45.4467C39.5579 44.8219 38.8781 44.4183 38.3165 44.2359C37.7548 44.0535 37.2477 44.0696 36.7951 44.2843C36.3491 44.4905 35.9025 44.8792 35.4554 45.4502L34.1237 47.1509L40.1074 51.8365Z" fill="#111111"/>
<path d="M50.3001 43.2269C49.2658 44.1182 48.2835 44.5143 47.353 44.415C46.4306 44.3087 45.5551 43.7748 44.7264 42.8133C43.8978 41.8518 43.503 40.9036 43.5421 39.9686C43.5812 39.0337 44.1139 38.124 45.14 37.2397C46.1742 36.3483 47.1566 35.9523 48.0871 36.0516C49.0175 36.1509 49.8971 36.6813 50.7258 37.6428C51.5545 38.6043 51.9492 39.5525 51.9101 40.4875C51.8791 41.4154 51.3424 42.3286 50.3001 43.2269ZM49.3391 42.1119C49.9451 41.5896 50.248 41.0751 50.2478 40.5683C50.2487 40.0465 49.9636 39.4544 49.3926 38.7918C48.8216 38.1292 48.2814 37.764 47.7722 37.6959C47.271 37.6209 46.7174 37.8445 46.1114 38.3668C45.5135 38.8821 45.2106 39.3966 45.2028 39.9104C45.203 40.4171 45.4886 41.0018 46.0596 41.6643C46.6306 42.3269 47.1702 42.6997 47.6783 42.7828C48.1876 42.8508 48.7412 42.6272 49.3391 42.1119Z" fill="#111111"/>
<path d="M55.7233 38.9548L51.9386 32.3827L53.3252 31.5842L53.7937 32.2376C53.9564 31.8361 54.1959 31.4398 54.5121 31.0484C54.8323 30.6425 55.2419 30.2958 55.7411 30.0084C56.5915 29.5186 57.3252 29.3607 57.9424 29.5346C58.5595 29.7086 59.1102 30.2161 59.5946 31.0572L62.0459 35.3139L60.5484 36.1762L58.1371 31.9889C57.8443 31.4805 57.5331 31.1858 57.2034 31.1049C56.8829 31.0187 56.4361 31.1406 55.863 31.4706C55.521 31.6675 55.2236 31.9311 54.9706 32.2614C54.727 32.5864 54.5581 32.9237 54.464 33.2733L57.2346 38.0845L55.7233 38.9548Z" fill="#111111"/>
<path d="M67.4096 33.4562C66.9571 33.6162 66.5062 33.6851 66.0571 33.6629C65.6181 33.6372 65.226 33.5043 64.8809 33.2643C64.5323 33.0142 64.2726 32.6479 64.1019 32.1652C63.86 31.4813 63.8975 30.8515 64.2143 30.2756C64.5375 29.686 65.1869 29.2188 66.1624 28.8738L68.4552 28.0629L68.3432 27.7462C68.2223 27.4042 68.0709 27.1523 67.8892 26.9903C67.7175 26.8247 67.4748 26.7465 67.1613 26.7556C66.8577 26.7611 66.4395 26.8581 65.9065 27.0466C65.0618 27.3453 64.3168 27.7502 63.6716 28.2612L63.2395 27.0394C63.5151 26.7948 63.8699 26.5506 64.3041 26.3065C64.7382 26.0625 65.2217 25.8462 65.7547 25.6577C66.8006 25.2878 67.6697 25.218 68.3621 25.4484C69.0646 25.6751 69.5848 26.2662 69.9226 27.2215L71.5497 31.8223L70.1469 32.3184L69.7852 31.6317C69.5932 32.0164 69.3076 32.3607 68.9285 32.6644C68.5595 32.9646 68.0532 33.2286 67.4096 33.4562ZM67.4309 32.1249C67.9237 31.9506 68.3226 31.719 68.6278 31.4301C68.9394 31.1275 69.161 30.7946 69.2928 30.4312L68.85 29.1792L66.5873 29.9794C66.1046 30.1501 65.7864 30.3701 65.6328 30.6394C65.4856 30.8951 65.4796 31.214 65.6147 31.5962C65.7463 31.9683 65.9663 32.1903 66.2746 32.2623C66.5829 32.3343 66.9683 32.2885 67.4309 32.1249Z" fill="#111111"/>
<path d="M77.5187 30.8839C76.7215 31.031 76.0849 30.9316 75.6089 30.5856C75.1414 30.2272 74.8398 29.6809 74.7043 28.9466L73.9839 25.0446L72.8825 25.2479L72.6356 23.9105L73.737 23.7072L73.4204 21.9921L75.0238 21.1592L75.4363 23.3935L77.4188 23.0275L77.5556 24.3852L75.6832 24.7309L76.3861 28.5385C76.4655 28.9686 76.6213 29.2544 76.8536 29.3959C77.0838 29.5269 77.4245 29.5508 77.8755 29.4676C78.1588 29.4153 78.448 29.3076 78.7433 29.1447L78.967 30.3562C78.5889 30.5995 78.1061 30.7754 77.5187 30.8839Z" fill="#111111"/>
<path d="M86.0459 30.2275C84.7236 30.2608 83.6918 29.9613 82.9503 29.3292C82.2088 28.697 81.8211 27.7091 81.7873 26.3655C81.7567 25.1499 82.0417 24.1824 82.6425 23.463C83.2432 22.7437 84.1727 22.3682 85.431 22.3365C86.5826 22.3075 87.454 22.5896 88.0451 23.1829C88.6467 23.7653 88.9594 24.531 88.9833 25.48L89.0187 26.8876L83.4685 27.0274C83.5723 27.761 83.8517 28.2608 84.3065 28.5268C84.7613 28.7927 85.4473 28.9142 86.3643 28.8911C86.7482 28.8814 87.1418 28.8341 87.5451 28.7493C87.9485 28.6644 88.2979 28.5596 88.5935 28.4348L88.6258 29.7144C88.2883 29.8723 87.8966 29.9942 87.4506 30.0801C87.0153 30.1657 86.547 30.2149 86.0459 30.2275ZM83.4399 25.8917L87.4546 25.7906L87.4413 25.2628C87.4282 24.7403 87.274 24.3387 86.9788 24.0581C86.6834 23.7667 86.1945 23.6297 85.512 23.6469C84.7016 23.6673 84.1462 23.8573 83.8458 24.217C83.5561 24.5764 83.4208 25.1346 83.4399 25.8917Z" fill="#111111"/>
<path d="M98.2428 31.3552L101.06 21.4439L102.538 21.864L105.635 30.629L107.709 23.334L109.371 23.8066L106.553 33.7178L105.076 33.2978L101.99 24.5526L99.9203 31.8321L98.2428 31.3552Z" fill="#111111"/>
<path d="M112.108 36.7132C110.892 36.0923 110.154 35.3323 109.895 34.4333C109.645 33.5391 109.808 32.5268 110.386 31.3963C110.963 30.2658 111.692 29.5421 112.572 29.2252C113.453 28.9083 114.496 29.0578 115.703 29.6739C116.919 30.2948 117.656 31.0548 117.916 31.9539C118.175 32.8529 118.016 33.8677 117.439 34.9981C116.862 36.1286 116.133 36.8523 115.253 37.1692C114.382 37.491 113.333 37.339 112.108 36.7132ZM112.777 35.4023C113.49 35.7661 114.081 35.8522 114.55 35.6606C115.033 35.4643 115.474 34.9767 115.872 34.1977C116.27 33.4187 116.404 32.7806 116.274 32.2834C116.155 31.791 115.738 31.3629 115.026 30.9991C114.323 30.6402 113.732 30.554 113.253 30.7408C112.784 30.9324 112.351 31.4177 111.953 32.1967C111.555 32.9757 111.414 33.6161 111.529 34.118C111.658 34.6152 112.074 35.0433 112.777 35.4023Z" fill="#111111"/>
<path d="M119.404 41.0972L122.572 33.9219L123.935 35.0098L121.517 40.1426L125.545 37.4817L126.123 36.7563L127.161 37.5847L125.006 42.9272L129.475 39.4311L130.826 40.509L124.544 45.1991L123.256 44.1711L125.087 39.2863L120.705 42.1351L119.404 41.0972Z" fill="#111111"/>
<path d="M131.041 52.8226L132.143 52.0252L133.006 53.2176L131.904 54.015L131.041 52.8226Z" fill="#111111"/>
<path d="M137.165 63.1559L146.801 59.5052L148.281 63.4103C148.821 64.8367 148.843 66.0377 148.345 67.0131C147.858 67.9848 146.741 68.8014 144.996 69.4627C143.35 70.0863 142.015 70.2044 140.989 69.8171C139.974 69.4261 139.193 68.5074 138.645 67.061L137.165 63.1559ZM139.04 64.3106L139.805 66.3305C140.043 66.9589 140.332 67.4486 140.67 67.7995C141.018 68.1466 141.486 68.3285 142.074 68.3453C142.662 68.362 143.43 68.1909 144.378 67.8318C145.326 67.4728 146.023 67.1003 146.47 66.7143C146.917 66.3282 147.165 65.886 147.216 65.3877C147.271 64.8994 147.169 64.3161 146.912 63.6378L146.147 61.6179L139.04 64.3106Z" fill="#111111"/>
<path d="M141.122 77.4929C140.895 76.1465 141.065 75.1011 141.632 74.3565C142.2 73.6224 143.11 73.1499 144.362 72.9389C145.614 72.7278 146.629 72.8811 147.409 73.3987C148.188 73.9163 148.691 74.8431 148.916 76.1789C149.143 77.5252 148.973 78.5707 148.406 79.3152C147.839 80.0598 146.93 80.5376 145.679 80.7486C144.427 80.9597 143.411 80.8064 142.632 80.2888C141.854 79.7817 141.351 78.8497 141.122 77.4929ZM142.573 77.2481C142.706 78.037 142.99 78.5626 143.423 78.8248C143.869 79.0958 144.523 79.1585 145.386 79.0131C146.248 78.8677 146.841 78.5948 147.163 78.1944C147.486 77.8045 147.582 77.2151 147.449 76.4262C147.317 75.6479 147.034 75.1223 146.599 74.8496C146.165 74.5874 145.517 74.529 144.654 74.6744C143.792 74.8198 143.194 75.0883 142.859 75.48C142.538 75.8804 142.442 76.4698 142.573 77.2481Z" fill="#111111"/>
<path d="M141.974 84.3414L149.557 84.507L149.522 86.1066L148.72 86.1691C148.979 86.5162 149.194 86.9263 149.365 87.3995C149.547 87.8836 149.631 88.4135 149.619 88.9894C149.597 89.9705 149.353 90.68 148.884 91.1179C148.416 91.5557 147.696 91.7641 146.726 91.7429L141.815 91.6357L141.853 89.9081L146.684 90.0136C147.27 90.0264 147.684 89.9127 147.924 89.6725C148.163 89.4431 148.29 88.9977 148.305 88.3366C148.313 87.942 148.242 87.551 148.09 87.1636C147.939 86.7869 147.737 86.4677 147.487 86.2062L141.936 86.085L141.974 84.3414Z" fill="#111111"/>
<path d="M140.627 97.1902C140.724 96.7202 140.898 96.2989 141.15 95.9262C141.399 95.5639 141.716 95.2973 142.1 95.1263C142.495 94.9576 142.942 94.9251 143.444 95.029C144.154 95.1763 144.673 95.5345 145.002 96.1037C145.339 96.6855 145.403 97.483 145.193 98.4961L144.699 100.878L145.028 100.946C145.383 101.019 145.677 101.02 145.91 100.949C146.14 100.888 146.333 100.721 146.487 100.448C146.64 100.185 146.773 99.777 146.888 99.2234C147.07 98.3461 147.109 97.4991 147.006 96.6825L148.275 96.9456C148.342 97.3079 148.367 97.738 148.351 98.2358C148.335 98.7336 148.27 99.2592 148.155 99.8128C147.93 100.899 147.539 101.679 146.984 102.152C146.426 102.635 145.651 102.774 144.659 102.569L139.88 101.578L140.182 100.121L140.957 100.167C140.727 99.8038 140.581 99.3812 140.517 98.8996C140.452 98.4285 140.488 97.8587 140.627 97.1902ZM141.754 97.8979C141.648 98.4097 141.64 98.8709 141.729 99.2815C141.826 99.7048 141.997 100.067 142.239 100.368L143.54 100.637L144.027 98.2872C144.131 97.7858 144.107 97.3997 143.956 97.1288C143.814 96.8705 143.544 96.7002 143.147 96.6179C142.761 96.5378 142.457 96.611 142.236 96.8375C142.014 97.0639 141.854 97.4174 141.754 97.8979Z" fill="#111111"/>
<path d="M137.595 107.177C137.882 106.419 138.296 105.926 138.839 105.698C139.387 105.484 140.011 105.508 140.709 105.773L144.42 107.177L144.817 106.13L146.089 106.611L145.692 107.658L147.324 108.276L147.206 110.079L145.081 109.275L144.367 111.16L143.135 110.574L143.809 108.793L140.188 107.423C139.779 107.268 139.453 107.253 139.212 107.379C138.981 107.508 138.784 107.787 138.621 108.216C138.52 108.485 138.462 108.788 138.448 109.126L137.296 108.69C137.284 108.24 137.383 107.736 137.595 107.177Z" fill="#111111"/>
<path d="M133.734 114.809C134.39 113.661 135.18 112.933 136.105 112.626C137.03 112.319 138.076 112.499 139.243 113.166C140.298 113.769 140.979 114.514 141.283 115.4C141.587 116.287 141.427 117.276 140.803 118.369C140.231 119.369 139.539 119.969 138.725 120.167C137.915 120.38 137.098 120.251 136.274 119.78L135.051 119.082L137.806 114.261C137.125 113.97 136.552 113.95 136.089 114.202C135.626 114.453 135.167 114.977 134.712 115.773C134.521 116.107 134.358 116.468 134.222 116.857C134.086 117.246 133.994 117.599 133.948 117.917L132.837 117.282C132.876 116.911 132.975 116.513 133.132 116.087C133.284 115.67 133.485 115.244 133.734 114.809ZM138.792 114.825L136.8 118.312L137.258 118.574C137.712 118.833 138.135 118.909 138.528 118.802C138.931 118.7 139.301 118.353 139.64 117.76C140.042 117.056 140.167 116.483 140.015 116.039C139.857 115.605 139.45 115.201 138.792 114.825Z" fill="#111111"/>
<path d="M126.468 124.659L133.488 132.201L132.363 133.248L123.261 131.359L128.428 136.91L127.163 138.088L120.143 130.545L121.268 129.499L130.347 131.387L125.191 125.847L126.468 124.659Z" fill="#111111"/>
<path d="M114.706 133.744C115.867 133.026 116.899 132.788 117.803 133.032C118.697 133.281 119.479 133.945 120.147 135.024C120.815 136.103 121.057 137.102 120.872 138.019C120.687 138.936 120.019 139.752 118.867 140.465C117.706 141.183 116.674 141.421 115.771 141.177C114.867 140.934 114.081 140.273 113.413 139.193C112.745 138.114 112.503 137.116 112.688 136.198C112.864 135.287 113.536 134.469 114.706 133.744ZM115.481 134.996C114.801 135.417 114.421 135.878 114.342 136.378C114.26 136.894 114.449 137.523 114.909 138.267C115.37 139.011 115.846 139.456 116.339 139.603C116.822 139.755 117.404 139.621 118.084 139.2C118.755 138.784 119.135 138.323 119.223 137.817C119.302 137.316 119.111 136.694 118.65 135.951C118.19 135.207 117.715 134.754 117.226 134.593C116.734 134.446 116.152 134.58 115.481 134.996Z" fill="#111111"/>
<path d="M107.17 137.718L111.668 144.143L110.032 144.746L106.893 140.02L107.084 144.843L107.404 145.714L106.158 146.173L102.704 141.563L103.381 147.196L101.759 147.793L100.999 139.991L102.546 139.422L105.777 143.517L105.609 138.293L107.17 137.718Z" fill="#111111"/>
</svg>
