<svg width="149" height="144" viewBox="0 0 149 144" fill="none" xmlns="http://www.w3.org/2000/svg">
<g opacity="0.35">
<path fill-rule="evenodd" clip-rule="evenodd" d="M97.9132 12.001C98.6041 8.46503 98.0107 6.48865 97.1061 5.43915C96.2015 4.38966 94.3342 3.51135 90.735 3.67334C87.1867 3.83304 82.5677 4.99926 77.1282 7.23693C66.2855 11.6974 52.939 20.0995 39.768 31.4526C26.597 42.8057 16.3188 54.7674 10.3084 64.8339C7.29316 69.884 5.45862 74.2806 4.77748 77.7665C4.08658 81.3025 4.67996 83.2789 5.5846 84.3284C6.48924 85.3779 8.35653 86.2562 11.9557 86.0942C15.504 85.9345 20.123 84.7683 25.5625 82.5306C36.4052 78.0702 49.7517 69.668 62.9227 58.3149C76.0937 46.9619 86.3719 35.0001 92.3823 24.9336C95.3975 19.8835 97.2321 15.4869 97.9132 12.001ZM65.2381 61.0012C91.9977 37.9351 107.471 12.0203 99.7979 3.11889C92.1251 -5.78251 64.2122 5.70026 37.4526 28.7664C10.6929 51.8325 -4.77999 77.7473 2.89279 86.6486C10.5656 95.55 38.4785 84.0673 65.2381 61.0012Z" fill="url(#paint0_linear_21_1762)"/>
<path fill-rule="evenodd" clip-rule="evenodd" d="M107.175 22.7459C107.866 19.21 107.273 17.2336 106.368 16.1841C105.463 15.1346 103.596 14.2563 99.9968 14.4183C96.4486 14.578 91.8295 15.7442 86.3901 17.9819C75.5474 22.4423 62.2009 30.8445 49.0299 42.1975C35.8589 53.5506 25.5807 65.5124 19.5703 75.5789C16.555 80.6289 14.7205 85.0256 14.0393 88.5115C13.3484 92.0474 13.9418 94.0238 14.8465 95.0733C15.7511 96.1228 17.6184 97.0011 21.2176 96.8391C24.7658 96.6794 29.3849 95.5132 34.8243 93.2755C45.667 88.8151 59.0135 80.4129 72.1845 69.0599C85.3555 57.7068 95.6338 45.745 101.644 35.6785C104.659 30.6285 106.494 26.2318 107.175 22.7459ZM74.5 71.7461C101.26 48.68 116.733 22.7652 109.06 13.8638C101.387 4.96242 73.474 16.4452 46.7144 39.5113C19.9548 62.5774 4.48188 88.4922 12.1547 97.3936C19.8274 106.295 47.7404 94.8122 74.5 71.7461Z" fill="url(#paint1_linear_21_1762)"/>
<path fill-rule="evenodd" clip-rule="evenodd" d="M116.437 33.4908C117.128 29.9549 116.534 27.9785 115.63 26.929C114.725 25.8795 112.858 25.0012 109.259 25.1632C105.71 25.3229 101.091 26.4891 95.6519 28.7268C84.8093 33.1872 71.4627 41.5894 58.2917 52.9425C45.1207 64.2955 34.8425 76.2573 28.8321 86.3238C25.8169 91.3738 23.9823 95.7705 23.3012 99.2564C22.6103 102.792 23.2037 104.769 24.1083 105.818C25.013 106.868 26.8803 107.746 30.4794 107.584C34.0277 107.424 38.6468 106.258 44.0862 104.02C54.9289 99.56 68.2754 91.1579 81.4464 79.8048C94.6174 68.4517 104.896 56.49 110.906 46.4235C113.921 41.3734 115.756 36.9768 116.437 33.4908ZM83.7619 82.491C110.521 59.4249 125.994 33.5101 118.322 24.6088C110.649 15.7074 82.7359 27.1901 55.9763 50.2562C29.2167 73.3223 13.7437 99.2371 21.4165 108.139C29.0893 117.04 57.0023 105.557 83.7619 82.491Z" fill="url(#paint2_linear_21_1762)"/>
<path fill-rule="evenodd" clip-rule="evenodd" d="M125.699 44.2358C126.39 40.6998 125.796 38.7234 124.892 37.6739C123.987 36.6245 122.12 35.7461 118.521 35.9081C114.972 36.0678 110.353 37.2341 104.914 39.4717C94.0711 43.9322 80.7246 52.3343 67.5536 63.6874C54.3826 75.0405 44.1044 87.0022 38.094 97.0687C35.0787 102.119 33.2442 106.515 32.5631 110.001C31.8722 113.537 32.4655 115.514 33.3702 116.563C34.2748 117.613 36.1421 118.491 39.7413 118.329C43.2895 118.169 47.9086 117.003 53.3481 114.765C64.1907 110.305 77.5373 101.903 90.7083 90.5497C103.879 79.1967 114.157 67.2349 120.168 57.1684C123.183 52.1183 125.018 47.7217 125.699 44.2358ZM93.0237 93.236C119.783 70.1699 135.256 44.2551 127.583 35.3537C119.911 26.4523 91.9977 37.9351 65.2381 61.0012C38.4785 84.0673 23.0056 109.982 30.6784 118.883C38.3512 127.785 66.2641 116.302 93.0237 93.236Z" fill="url(#paint3_linear_21_1762)"/>
<path fill-rule="evenodd" clip-rule="evenodd" d="M134.961 54.9807C135.652 51.4448 135.058 49.4684 134.154 48.4189C133.249 47.3694 131.382 46.4911 127.782 46.6531C124.234 46.8128 119.615 47.979 114.176 50.2167C103.333 54.6771 89.9865 63.0793 76.8155 74.4323C63.6445 85.7854 53.3662 97.7472 47.3558 107.814C44.3406 112.864 42.5061 117.26 41.8249 120.746C41.134 124.282 41.7274 126.259 42.632 127.308C43.5367 128.358 45.404 129.236 49.0031 129.074C52.5514 128.914 57.1705 127.748 62.6099 125.51C73.4526 121.05 86.7991 112.648 99.9701 101.295C113.141 89.9416 123.419 77.9798 129.43 67.9133C132.445 62.8633 134.28 58.4666 134.961 54.9807ZM102.286 103.981C129.045 80.9148 144.518 55 136.845 46.0986C129.173 37.1972 101.26 48.68 74.5 71.7461C47.7404 94.8122 32.2675 120.727 39.9402 129.628C47.613 138.53 75.526 127.047 102.286 103.981Z" fill="url(#paint4_linear_21_1762)"/>
<path fill-rule="evenodd" clip-rule="evenodd" d="M144.223 65.7256C144.913 62.1897 144.32 60.2133 143.415 59.1638C142.511 58.1143 140.643 57.236 137.044 57.398C133.496 57.5577 128.877 58.7239 123.438 60.9616C112.595 65.422 99.2483 73.8242 86.0773 85.1773C72.9063 96.5303 62.6281 108.492 56.6177 118.559C53.6025 123.609 51.7679 128.005 51.0868 131.491C50.3959 135.027 50.9893 137.004 51.8939 138.053C52.7985 139.103 54.6658 139.981 58.265 139.819C61.8133 139.659 66.4323 138.493 71.8718 136.255C82.7145 131.795 96.061 123.393 109.232 112.04C122.403 100.687 132.681 88.7248 138.692 78.6583C141.707 73.6082 143.541 69.2116 144.223 65.7256ZM111.547 114.726C138.307 91.6597 153.78 65.7449 146.107 56.8435C138.434 47.9422 110.521 59.4249 83.7619 82.491C57.0023 105.557 41.5293 131.472 49.2021 140.373C56.8749 149.275 84.7878 137.792 111.547 114.726Z" fill="url(#paint5_linear_21_1762)"/>
</g>
<defs>
<linearGradient id="paint0_linear_21_1762" x1="46" y1="24" x2="104" y2="91" gradientUnits="userSpaceOnUse">
<stop stop-color="#C8F168"/>
<stop offset="1" stop-color="#C8F168" stop-opacity="0.07"/>
</linearGradient>
<linearGradient id="paint1_linear_21_1762" x1="46" y1="24" x2="104" y2="91" gradientUnits="userSpaceOnUse">
<stop stop-color="#C8F168"/>
<stop offset="1" stop-color="#C8F168" stop-opacity="0.07"/>
</linearGradient>
<linearGradient id="paint2_linear_21_1762" x1="46" y1="24" x2="104" y2="91" gradientUnits="userSpaceOnUse">
<stop stop-color="#C8F168"/>
<stop offset="1" stop-color="#C8F168" stop-opacity="0.07"/>
</linearGradient>
<linearGradient id="paint3_linear_21_1762" x1="46" y1="24" x2="104" y2="91" gradientUnits="userSpaceOnUse">
<stop stop-color="#C8F168"/>
<stop offset="1" stop-color="#C8F168" stop-opacity="0.07"/>
</linearGradient>
<linearGradient id="paint4_linear_21_1762" x1="46" y1="24" x2="104" y2="91" gradientUnits="userSpaceOnUse">
<stop stop-color="#C8F168"/>
<stop offset="1" stop-color="#C8F168" stop-opacity="0.07"/>
</linearGradient>
<linearGradient id="paint5_linear_21_1762" x1="46" y1="24" x2="104" y2="91" gradientUnits="userSpaceOnUse">
<stop stop-color="#C8F168"/>
<stop offset="1" stop-color="#C8F168" stop-opacity="0.07"/>
</linearGradient>
</defs>
</svg>
