<svg width="74" height="133" viewBox="0 0 74 133" fill="none" xmlns="http://www.w3.org/2000/svg">
<path fill-rule="evenodd" clip-rule="evenodd" d="M39.4547 126.862L4.27219 84.1729C-6.19056 71.4779 3.75645 53.3547 21.1869 53.3547C26.6643 53.3547 29.7951 47.6643 26.5157 43.6692L9.80124 23.307C2.0976 13.9221 9.45207 0.554688 22.3191 0.554688C27.2648 0.554688 31.9187 2.68648 34.867 6.30248L69.8134 49.1632C80.1246 61.8096 70.2118 79.7547 52.9148 79.7547C47.5207 79.7547 44.4376 85.3585 47.6671 89.2928L64.4896 109.787C72.1986 119.178 64.839 132.555 51.9631 132.555C47.0423 132.555 42.4085 130.446 39.4547 126.862Z" fill="url(#paint0_linear_7_3640)"/>
<defs>
<linearGradient id="paint0_linear_7_3640" x1="37" y1="132.555" x2="37" y2="0.554688" gradientUnits="userSpaceOnUse">
<stop stop-color="#F6F4F3"/>
<stop offset="1" stop-color="#CFECCA"/>
</linearGradient>
</defs>
</svg>
