<svg width="80" height="81" viewBox="0 0 80 81" fill="none" xmlns="http://www.w3.org/2000/svg">
<path d="M0.5 12.5547C0.5 6.20341 5.64873 1.05469 12 1.05469H68C74.3513 1.05469 79.5 6.20341 79.5 12.5547V68.5547C79.5 74.906 74.3513 80.0547 68 80.0547H12C5.64872 80.0547 0.5 74.906 0.5 68.5547V12.5547Z" stroke="#BABBC1"/>
<g clip-path="url(#clip0_7_3626)">
<path d="M59.6927 61.5544H21.3073C15.9347 61.5544 12.6863 55.6881 15.5854 51.2207L34.7775 21.6449C37.4516 17.5246 43.5478 17.5246 46.2214 21.6449L65.4141 51.2207C68.3137 55.6881 65.0653 61.5544 59.6927 61.5544Z" fill="#C8F168"/>
<path d="M40.4999 22.2107C41.5913 22.2107 42.5166 22.7105 43.1057 23.618L62.2984 53.1937C62.9182 54.1488 62.959 55.314 62.4079 56.3098C61.8564 57.3057 60.8417 57.9 59.6931 57.9H21.3067C20.158 57.9 19.1428 57.3057 18.5918 56.3103C18.0402 55.3145 18.081 54.1493 18.7008 53.1942L37.894 23.6185C38.4831 22.7105 39.4084 22.2107 40.4999 22.2107ZM40.4999 20.9922C38.9955 20.9922 37.6669 21.7099 36.8555 22.9603L17.6623 52.5366C16.7947 53.8733 16.7381 55.5022 17.5093 56.8948C18.2805 58.2869 19.6997 59.1186 21.3067 59.1186H59.6925C61.2995 59.1186 62.7187 58.2869 63.4899 56.8948C64.2611 55.5022 64.2045 53.8733 63.3369 52.5366L44.1442 22.9609C43.3323 21.7099 42.0042 20.9922 40.4999 20.9922Z" fill="black"/>
<path d="M40.7998 47.2744H40.199C39.937 47.2744 39.7189 47.0747 39.6999 46.8165L38.4311 29.9374C38.4094 29.6509 38.6391 29.4062 38.9303 29.4062H42.0691C42.3603 29.4062 42.59 29.6504 42.5683 29.9374L41.299 46.8165C41.2794 47.0747 41.0618 47.2744 40.7998 47.2744Z" fill="black"/>
<path d="M40.5015 54.0485C41.5767 54.0485 42.4484 53.1877 42.4484 52.1258C42.4484 51.0639 41.5767 50.2031 40.5015 50.2031C39.4263 50.2031 38.5547 51.0639 38.5547 52.1258C38.5547 53.1877 39.4263 54.0485 40.5015 54.0485Z" fill="black"/>
</g>
<defs>
<clipPath id="clip0_7_3626">
<rect width="52" height="43" fill="white" transform="translate(14.5 18.5547)"/>
</clipPath>
</defs>
</svg>
