<svg width="130" height="233" viewBox="0 0 130 233" fill="none" xmlns="http://www.w3.org/2000/svg">
<path fill-rule="evenodd" clip-rule="evenodd" d="M69.3123 222.549L7.5052 147.52C-10.8753 125.208 6.59917 93.3547 37.2203 93.3547C46.8427 93.3547 52.3427 83.3533 46.5816 76.3317L17.2184 40.5436C3.68497 24.049 16.605 0.554688 39.2092 0.554688C47.8977 0.554688 56.0734 4.30147 61.2529 10.6569L122.645 85.9878C140.759 108.215 123.345 139.755 92.9584 139.755C83.4824 139.755 78.0661 149.604 83.7395 156.519L113.293 192.538C126.835 209.044 113.906 232.555 91.2866 232.555C82.6419 232.555 74.5014 228.848 69.3123 222.549Z" fill="url(#paint0_linear_7_3639)"/>
<defs>
<linearGradient id="paint0_linear_7_3639" x1="65" y1="232.555" x2="65" y2="0.554688" gradientUnits="userSpaceOnUse">
<stop stop-color="#F6F4F3"/>
<stop offset="1" stop-color="#E9ECCA"/>
</linearGradient>
</defs>
</svg>
