<svg width="81" height="80" viewBox="0 0 81 80" fill="none" xmlns="http://www.w3.org/2000/svg">
<path d="M1 12C1 5.64872 6.14873 0.5 12.5 0.5H68.5C74.8513 0.5 80 5.64873 80 12V68C80 74.3513 74.8513 79.5 68.5 79.5H12.5C6.14872 79.5 1 74.3513 1 68V12Z" stroke="#BABBC1"/>
<path d="M40.5 23.75C37.2861 23.75 34.1443 24.703 31.472 26.4886C28.7997 28.2742 26.7169 30.8121 25.487 33.7814C24.257 36.7507 23.9352 40.018 24.5622 43.1702C25.1893 46.3224 26.7369 49.2179 29.0095 51.4905C31.2821 53.7631 34.1776 55.3107 37.3298 55.9378C40.482 56.5648 43.7493 56.243 46.7186 55.013C49.6879 53.7831 52.2258 51.7003 54.0114 49.028C55.797 46.3557 56.75 43.2139 56.75 40C56.7455 35.6916 55.0319 31.561 51.9855 28.5145C48.939 25.4681 44.8084 23.7545 40.5 23.75ZM40.5 50C40.1292 50 39.7667 49.89 39.4583 49.684C39.15 49.478 38.9096 49.1851 38.7677 48.8425C38.6258 48.4999 38.5887 48.1229 38.661 47.7592C38.7334 47.3955 38.912 47.0614 39.1742 46.7992C39.4364 46.537 39.7705 46.3584 40.1342 46.286C40.4979 46.2137 40.8749 46.2508 41.2175 46.3927C41.5601 46.5346 41.853 46.775 42.059 47.0833C42.265 47.3916 42.375 47.7542 42.375 48.125C42.375 48.6223 42.1775 49.0992 41.8258 49.4508C41.4742 49.8025 40.9973 50 40.5 50ZM41.75 42.3875V42.5C41.75 42.8315 41.6183 43.1495 41.3839 43.3839C41.1495 43.6183 40.8315 43.75 40.5 43.75C40.1685 43.75 39.8505 43.6183 39.6161 43.3839C39.3817 43.1495 39.25 42.8315 39.25 42.5V41.25C39.25 40.9185 39.3817 40.6005 39.6161 40.3661C39.8505 40.1317 40.1685 40 40.5 40C42.5672 40 44.25 38.5938 44.25 36.875C44.25 35.1562 42.5672 33.75 40.5 33.75C38.4328 33.75 36.75 35.1562 36.75 36.875V37.5C36.75 37.8315 36.6183 38.1495 36.3839 38.3839C36.1495 38.6183 35.8315 38.75 35.5 38.75C35.1685 38.75 34.8505 38.6183 34.6161 38.3839C34.3817 38.1495 34.25 37.8315 34.25 37.5V36.875C34.25 33.7734 37.0531 31.25 40.5 31.25C43.9469 31.25 46.75 33.7734 46.75 36.875C46.75 39.5906 44.6 41.8641 41.75 42.3875Z" fill="#111111"/>
</svg>
