<svg width="191" height="200" viewBox="0 0 191 200" fill="none" xmlns="http://www.w3.org/2000/svg">
<path d="M68.3243 237.022C65.0859 216.986 53.5006 210.157 48.5745 198.172C43.6941 186.187 40.4101 166.332 38.2663 152.266C36.1226 138.201 35.1647 130.15 31.5158 123.095C24.8565 110.296 3.92083 81.6216 1.54903 73.7069C-0.822771 65.7921 4.92428 64.7971 6.83997 65.4303C10.9906 66.7871 14.3203 71.9883 16.464 74.7471C22.5303 82.4809 32.6561 96.9084 39.5891 105.728C45.5642 113.371 47.115 115.994 51.1744 114.366C55.2338 112.738 52.7252 105.728 52.7252 105.728C52.7252 105.728 39.4522 39.6509 38.7681 33.0929C38.0839 26.535 38.54 21.0173 45.0168 20.158C51.4937 19.2986 55.0514 31.0577 55.0514 31.0577C55.0514 31.0577 69.0541 87.6821 72.1101 94.7375C75.1205 101.793 78.815 96.9084 79.0887 94.8732C79.3623 92.838 79.2255 82.7523 79.2255 82.7523C79.2255 82.7523 77.2642 51.3647 77.3098 37.6609C77.3554 23.9118 77.3098 13.7357 78.9974 6.27323C80.6851 -1.18924 87.8005 0.0318891 90.3091 2.42893C92.8634 4.82596 94.1405 20.6555 94.1405 20.6555C94.1405 20.6555 99.2034 71.4908 100.116 79.6316C101.073 87.7725 100.754 90.4862 102.259 93.5616C103.719 96.637 109.147 95.7325 109.968 91.0741C110.789 86.3705 112.613 78.1391 112.613 78.1391C112.613 78.1391 121.781 34.1784 125.202 25.1329C128.623 16.0875 132.591 17.173 138.11 19.2082C143.583 21.2434 139.706 39.6961 139.706 39.6961C139.706 39.6961 134.826 66.7419 131.952 81.7121C129.079 96.6823 128.623 109.075 129.444 117.08C130.31 125.085 133.23 130.874 139.387 131.01C143.629 131.1 147.688 127.391 149.513 125.447C153.344 121.331 156.537 116.13 162.877 108.894C169.263 101.657 181.715 99.3959 186.413 100.074C191.111 100.798 192.616 107.13 188.967 110.703C176.789 122.552 175.831 125.944 172.957 131.914C169.901 138.336 164.428 147.472 161.418 157.965C158.407 168.503 151.748 178.815 143.036 190.574C134.279 202.333 136.103 219.157 136.103 219.157L138.475 235.891C138.475 235.891 145.59 283.651 152.158 326.572C154.439 341.406 182.353 493.415 189.058 525.255C184.451 529.37 179.753 533.531 174.964 537.737C164.017 532.853 153.39 528.013 143.082 523.174C131.861 517.883 121.051 512.636 110.606 507.345C103.08 451.218 70.3769 249.686 68.3243 237.022Z" fill="#043F2E"/>
</svg>
