<svg width="214" height="48" viewBox="0 0 214 48" fill="none" xmlns="http://www.w3.org/2000/svg">
<path fill-rule="evenodd" clip-rule="evenodd" d="M24 48C37.2548 48 48 37.2548 48 24C48 10.7452 37.2548 0 24 0C10.7452 0 0 10.7452 0 24C0 37.2548 10.7452 48 24 48ZM24 47C33.3888 47 41 39.3888 41 30C41 20.6112 33.3888 13 24 13C14.6112 13 7 20.6112 7 30C7 39.3888 14.6112 47 24 47Z" fill="#C8F168"/>
<circle cx="24" cy="33" r="13" fill="white"/>
<path d="M72.896 36.352C71.2107 36.352 69.6427 36.064 68.192 35.488C66.7627 34.8907 65.504 34.0587 64.416 32.992C63.3493 31.9253 62.5173 30.688 61.92 29.28C61.3227 27.8507 61.024 26.3147 61.024 24.672C61.024 23.0293 61.3227 21.504 61.92 20.096C62.5173 18.6667 63.3493 17.4293 64.416 16.384C65.4827 15.3387 66.7307 14.528 68.16 13.952C69.6107 13.3547 71.1787 13.056 72.864 13.056C74.656 13.056 76.2453 13.344 77.632 13.92C79.04 14.496 80.2667 15.2853 81.312 16.288L77.952 19.68C77.3547 19.04 76.6293 18.5387 75.776 18.176C74.944 17.8133 73.9733 17.632 72.864 17.632C71.8827 17.632 70.976 17.8027 70.144 18.144C69.3333 18.464 68.6293 18.9333 68.032 19.552C67.456 20.1707 66.9973 20.9173 66.656 21.792C66.336 22.6667 66.176 23.6267 66.176 24.672C66.176 25.7387 66.336 26.7093 66.656 27.584C66.9973 28.4587 67.456 29.2053 68.032 29.824C68.6293 30.4427 69.3333 30.9227 70.144 31.264C70.976 31.6053 71.8827 31.776 72.864 31.776C74.016 31.776 75.0187 31.5947 75.872 31.232C76.7253 30.8693 77.4613 30.368 78.08 29.728L81.472 33.12C80.384 34.1227 79.136 34.912 77.728 35.488C76.3413 36.064 74.7307 36.352 72.896 36.352ZM94.0625 36V27.136C94.0625 26.3253 93.8065 25.6747 93.2945 25.184C92.8038 24.672 92.1745 24.416 91.4065 24.416C90.8732 24.416 90.4038 24.5333 89.9985 24.768C89.5932 24.9813 89.2732 25.3013 89.0385 25.728C88.8038 26.1333 88.6865 26.6027 88.6865 27.136L86.7985 26.208C86.7985 24.992 87.0545 23.9253 87.5665 23.008C88.0785 22.0907 88.7932 21.3867 89.7105 20.896C90.6278 20.384 91.6838 20.128 92.8785 20.128C94.0945 20.128 95.1612 20.384 96.0785 20.896C96.9958 21.3867 97.6998 22.08 98.1905 22.976C98.7025 23.8507 98.9585 24.8747 98.9585 26.048V36H94.0625ZM83.7905 36V12.768H88.6865V36H83.7905ZM108.599 36.32C107.17 36.32 105.89 35.968 104.759 35.264C103.65 34.56 102.764 33.6 102.103 32.384C101.463 31.168 101.143 29.7813 101.143 28.224C101.143 26.6667 101.463 25.28 102.103 24.064C102.764 22.848 103.65 21.888 104.759 21.184C105.89 20.48 107.17 20.128 108.599 20.128C109.644 20.128 110.583 20.3307 111.415 20.736C112.268 21.1413 112.962 21.7067 113.495 22.432C114.028 23.136 114.327 23.9467 114.391 24.864V31.584C114.327 32.5013 114.028 33.3227 113.495 34.048C112.983 34.752 112.3 35.3067 111.447 35.712C110.594 36.1173 109.644 36.32 108.599 36.32ZM109.591 31.904C110.636 31.904 111.479 31.5627 112.119 30.88C112.759 30.176 113.079 29.2907 113.079 28.224C113.079 27.4987 112.93 26.8587 112.631 26.304C112.354 25.7493 111.948 25.3227 111.415 25.024C110.903 24.704 110.306 24.544 109.623 24.544C108.94 24.544 108.332 24.704 107.799 25.024C107.287 25.3227 106.871 25.7493 106.551 26.304C106.252 26.8587 106.103 27.4987 106.103 28.224C106.103 28.928 106.252 29.5573 106.551 30.112C106.85 30.6667 107.266 31.104 107.799 31.424C108.332 31.744 108.93 31.904 109.591 31.904ZM112.887 36V31.808L113.623 28.032L112.887 24.256V20.448H117.687V36H112.887ZM121.134 36V20.448H126.03V36H121.134ZM126.03 27.456L123.982 25.856C124.388 24.0427 125.07 22.6347 126.03 21.632C126.99 20.6293 128.324 20.128 130.03 20.128C130.777 20.128 131.428 20.2453 131.982 20.48C132.558 20.6933 133.06 21.0347 133.486 21.504L130.574 25.184C130.361 24.9493 130.094 24.768 129.774 24.64C129.454 24.512 129.092 24.448 128.686 24.448C127.876 24.448 127.225 24.704 126.734 25.216C126.265 25.7067 126.03 26.4533 126.03 27.456ZM134.791 36V20.448H139.687V36H134.791ZM137.255 18.304C136.487 18.304 135.847 18.048 135.335 17.536C134.844 17.0027 134.599 16.3627 134.599 15.616C134.599 14.848 134.844 14.208 135.335 13.696C135.847 13.184 136.487 12.928 137.255 12.928C138.023 12.928 138.652 13.184 139.143 13.696C139.633 14.208 139.879 14.848 139.879 15.616C139.879 16.3627 139.633 17.0027 139.143 17.536C138.652 18.048 138.023 18.304 137.255 18.304ZM145.342 36V14.016H150.238V36H145.342ZM141.822 24.608V20.448H153.758V24.608H141.822ZM160.716 36.064L154.316 20.448H159.596L163.66 32.832H161.708L165.868 20.448H171.148L164.492 36.064H160.716ZM156.716 42.56L161.388 32.48L164.492 36.064L161.74 42.56H156.716Z" fill="white"/>
<path d="M179.904 36.352C178.304 36.352 176.853 36 175.552 35.296C174.272 34.5707 173.258 33.5893 172.512 32.352C171.765 31.1147 171.392 29.728 171.392 28.192C171.392 26.656 171.765 25.28 172.512 24.064C173.258 22.848 174.272 21.888 175.552 21.184C176.832 20.4587 178.282 20.096 179.904 20.096C181.525 20.096 182.976 20.448 184.256 21.152C185.536 21.856 186.549 22.8267 187.296 24.064C188.042 25.28 188.416 26.656 188.416 28.192C188.416 29.728 188.042 31.1147 187.296 32.352C186.549 33.5893 185.536 34.5707 184.256 35.296C182.976 36 181.525 36.352 179.904 36.352ZM179.904 31.904C180.608 31.904 181.226 31.7547 181.76 31.456C182.293 31.136 182.698 30.6987 182.976 30.144C183.274 29.568 183.424 28.9173 183.424 28.192C183.424 27.4667 183.274 26.8373 182.976 26.304C182.677 25.7493 182.261 25.3227 181.728 25.024C181.216 24.704 180.608 24.544 179.904 24.544C179.221 24.544 178.613 24.704 178.08 25.024C177.546 25.3227 177.13 25.7493 176.832 26.304C176.533 26.8587 176.384 27.4987 176.384 28.224C176.384 28.928 176.533 29.568 176.832 30.144C177.13 30.6987 177.546 31.136 178.08 31.456C178.613 31.7547 179.221 31.904 179.904 31.904ZM194.349 36L188.973 20.448H193.773L197.101 31.744L195.693 31.776L199.373 20.448H203.341L207.053 31.776L205.613 31.744L208.973 20.448H213.773L208.397 36H204.397L200.781 25.248H201.997L198.317 36H194.349Z" fill="#F74F22"/>
</svg>


